<mxfile host="app.diagrams.net" modified="2023-12-21T19:56:32.975Z" agent="Mozilla/5.0 (Macintosh; Intel Mac OS X 10_15_7) AppleWebKit/537.36 (KHTML, like Gecko) Chrome/117.0.0.0 Safari/537.36" version="22.1.11" etag="fgG6ocuSzeFFALWcEHkh" type="github">
  <diagram name="Page-1" id="SVSL15tYSqK89D1Wadje">
    <mxGraphModel>
      <root>
        <mxCell id="0" />
        <mxCell id="1" parent="0" />
      </root>
    </mxGraphModel>
  </diagram>
</mxfile>
